This is my own rip.

There is a small logo for 30 seconds every 20 minutes.

General
Unique ID                        : 227601376185526047710405084475675214726 (0xAB3A6E3A5B2F8584B930B5C1C95D8386)
Format                           : Matroska
Format version                   : Version 4 / Version 2
File size                        : 1.94 GiB
Duration                         : 1h 35mn
Overall bit rate mode            : Variable
Overall bit rate                 : 2 889 Kbps
Encoded date                     : UTC 2013-02-11 16:33:16
Writing application              : mkvmerge v6.0.0 ('Coming Up For Air') built on Jan 20 2013 09:52:00
Writing library                  : libebml v1.3.0 + libmatroska v1.4.0

Video
ID                               : 1
Format                           : AVC
Format/Info                      : Advanced Video Codec
Format profile                   : High@L4.1
Format settings, CABAC           : Yes
Format settings, ReFrames        : 7 frames
Codec ID                         : V_MPEG4/ISO/AVC
Duration                         : 1h 35mn
Bit rate mode                    : Variable
Bit rate                         : 2 448 Kbps
Maximum bit rate                 : 12.6 Mbps
Width                            : 1 280 pixels
Height                           : 696 pixels
Display aspect ratio             : 16:9
Frame rate                       : 23.976 fps
Color space                      : YUV
Chroma subsampling               : 4:2:0
Bit depth                        : 8 bits
Scan type                        : Progressive
Bits/(Pixel*Frame)               : 0.115
Stream size                      : 1.64 GiB (85%)
Writing library                  : x264 core 129 r2230 1cffe9f
Language                         : English
Default                          : Yes
Forced                           : No

Audio
ID                               : 2
Format                           : AC-3
Format/Info                      : Audio Coding 3
Mode extension                   : CM (complete main)
Codec ID                         : A_AC3
Duration                         : 1h 35mn
Bit rate mode                    : Constant
Bit rate                         : 384 Kbps
Channel(s)                       : 6 channels
Channel positions                : Front: L C R, Side: L R, LFE
Sampling rate                    : 48.0 KHz
Bit depth                        : 16 bits
Compression mode                 : Lossy
Stream size                      : 263 MiB (13%)
Language                         : English
Default                          : Yes
Forced                           : No

Menu
00:00:00.000                     : Opening Credits
00:02:45.791                     : A Ride in the Country
00:08:23.211                     : Escape by Land and Sea
00:12:23.826                     : O'Malley Is on the Case
00:15:12.954                     : Island Landing
00:19:51.148                     : Discovering the Rappaport's
00:23:05.843                     : "We're Going After Him, Burke"
00:23:57.394                     : Dead-End Relationship
00:28:07.875                     : What Roz Wants
00:33:19.039                     : Too Easy
00:35:16.595                     : Call the Cops
00:37:30.665                     : Sailing With Evan
00:38:27.305                     : Got a Hunch
00:39:20.608                     : Morons
00:40:14.162                     : Gentleman Jealousy
00:41:24.107                     : Being Open
00:44:46.559                     : Evan's Party
00:48:24.485                     : "I Rest My Case"
00:50:17.264                     : Hoseback Ride
00:53:49.393                     : Way Too Easy
00:56:32.055                     : What Girls Like
00:59:42.120                     : Romantic Dinner
01:05:00.855                     : Eavesdropping
01:06:02.083                     : Big Day Tomorrow
01:06:59.140                     : Cop Cars Are Great
01:07:59.242                     : Corrol Kiss
01:09:09.979                     : Never Recovered
01:10:28.121                     : Roz's Great Escape
01:12:36.227                     : Getting Directions
01:13:22.648                     : Just a Game
01:15:29.817                     : Fish Plant 5PM
01:17:53.794                     : Frank Confesses
01:20:33.537                     : "What Would Beano Do?"
01:21:43.482                     : The Real Thief
01:27:48.577                     : Soft Hands
01:28:43.485                     : "I Swear"
01:31:12.008                     : Closing Credits
